<mxfile host="app.diagrams.net" modified="2023-11-06T09:39:28.029Z" agent="Mozilla/5.0 (Windows NT 10.0; Win64; x64) AppleWebKit/537.36 (KHTML, like Gecko) Chrome/118.0.0.0 Safari/537.36" version="22.0.8" etag="2x7Ky0AMMwTz6ERij73s" type="github">
  <diagram name="Page-1" id="NRDiTeIrqUvbEsp_mH--">
    <mxGraphModel>
      <root>
        <mxCell id="0" />
        <mxCell id="1" parent="0" />
      </root>
    </mxGraphModel>
  </diagram>
</mxfile>
